<?xml version="1.0" encoding="UTF-8"?>
<svg version="1.1" xmlns="http://www.w3.org/2000/svg" width="1280" height="661">
<path d="M0 0 C0.68022217 0.00217529 1.36044434 0.00435059 2.0612793 0.0065918 C4.09610887 0.00970645 6.12941779 -0.0135334 8.1640625 -0.0390625 C21.2658351 -0.0455134 32.07994728 1.89760319 41.70507812 11.27929688 C50.47780375 20.87790671 52.13916929 31.56076586 51.88867188 44.30273438 C51.39400184 52.10640648 50.20755777 59.30168134 46.69726562 66.32226562 C46.03726563 66.32226562 45.37726563 66.32226562 44.69726562 66.32226562 C44.49101562 67.04414063 44.28476562 67.76601563 44.07226562 68.50976562 C42.22197575 72.29444947 40.09486125 73.84485215 36.69726562 76.32226562 C36.03726563 76.32226562 35.37726563 76.32226562 34.69726562 76.32226562 C34.69726562 76.98226562 34.69726562 77.64226562 34.69726562 78.32226562 C32.63574173 78.97120799 30.57300305 79.61629202 28.50976562 80.25976562 C27.36121094 80.61941406 26.21265625 80.9790625 25.02929688 81.34960938 C17.62776073 83.51019847 10.68507307 83.50576599 3.00976562 83.50976562 C1.76130859 83.52201172 0.51285156 83.53425781 -0.7734375 83.546875 C-1.96259766 83.54880859 -3.15175781 83.55074219 -4.37695312 83.55273438 C-6.0102356 83.55889771 -6.0102356 83.55889771 -7.67651367 83.56518555 C-10.30273438 83.32226562 -10.30273438 83.32226562 -12.30273438 81.32226562 C-12.50100888 78.8035457 -12.57552894 76.39478896 -12.56152344 73.875 C-12.56502808 73.10738846 -12.56853271 72.33977692 -12.57214355 71.54890442 C-12.58096606 69.00451691 -12.57510997 66.4604061 -12.56835938 63.91601562 C-12.56970588 62.15246528 -12.57164629 60.38891529 -12.57415771 58.62536621 C-12.57710968 54.92647778 -12.57280903 51.22768583 -12.56347656 47.52880859 C-12.55208197 42.78041657 -12.55864106 38.03225061 -12.57062149 33.28386688 C-12.57783815 29.64140104 -12.57555306 25.99898905 -12.57036591 22.35652161 C-12.56902887 20.60537184 -12.570679 18.85421723 -12.57532501 17.10307312 C-12.5803871 14.65842681 -12.57268469 12.21414994 -12.56152344 9.76953125 C-12.5655719 9.04115555 -12.56962036 8.31277985 -12.5737915 7.56233215 C-12.49823019 -1.34182614 -7.51500073 0.04106558 0 0 Z M-0.30273438 11.32226562 C-0.30273438 31.45226562 -0.30273438 51.58226562 -0.30273438 72.32226562 C16.57626523 73.05569839 16.57626523 73.05569839 30.86914062 66.18945312 C38.49657557 58.3990388 38.69726562 48.61601657 38.69726562 38.32226562 C38.69726562 37.43925781 38.69726562 36.55625 38.69726562 35.64648438 C38.30978015 28.82916174 35.64274721 22.31714732 30.83398438 17.42773438 C21.28773384 9.80927036 12.20158468 11.32226562 -0.30273438 11.32226562 Z " fill="#FEFEFE" transform="translate(400.302734375,309.677734375)"/>
<path d="M0 0 C3.28782849 3.37915706 3.17578636 5.63704061 3.25 10.3125 C2.92 11.3025 2.59 12.2925 2.25 13.3125 C-2.13354968 13.68823283 -4.08428571 12.61422758 -7.75 10.3125 C-15.16342015 6.84204178 -22.80103996 5.18341565 -30.77734375 7.59375 C-39.0189272 10.59662397 -43.91387114 14.46032774 -48.37109375 22.0859375 C-51.75236103 29.99791136 -52.03670564 41.93256044 -49.75 50.3125 C-47.04750768 56.0594667 -43.61455302 62.35757963 -37.75 65.32421875 C-36.76 65.65873047 -36.76 65.65873047 -35.75 66 C-35.09 66.23074219 -34.43 66.46148437 -33.75 66.69921875 C-30.29072068 67.75997432 -27.19497016 68.46691739 -23.5625 68.5 C-22.86769531 68.51417969 -22.17289063 68.52835937 -21.45703125 68.54296875 C-17.4988119 68.20597749 -13.62794085 67.17426463 -9.75 66.3125 C-9.75 58.7225 -9.75 51.1325 -9.75 43.3125 C-15.95792914 43.35208027 -15.95792914 43.35208027 -22.16577148 43.40258789 C-22.93477783 43.40508545 -23.70378418 43.40758301 -24.49609375 43.41015625 C-25.28685303 43.41539307 -26.0776123 43.42062988 -26.89233398 43.42602539 C-28.75 43.3125 -28.75 43.3125 -29.75 42.3125 C-29.75 39.3425 -29.75 36.3725 -29.75 33.3125 C-19.52 33.3125 -9.29 33.3125 1.25 33.3125 C2.74504844 38.54516955 3.50458455 41.51770861 3.515625 46.65625 C3.51949219 48.40228516 3.51949219 48.40228516 3.5234375 50.18359375 C3.51570312 51.38113281 3.50796875 52.57867187 3.5 53.8125 C3.51160156 55.60880859 3.51160156 55.60880859 3.5234375 57.44140625 C3.4965414 69.58499549 3.4965414 69.58499549 1.25 74.3125 C-1.39453125 76.0546875 -1.39453125 76.0546875 -4.5625 77.1875 C-5.60019531 77.57679688 -6.63789062 77.96609375 -7.70703125 78.3671875 C-18.42378201 81.69639634 -32.41510592 82.18675855 -42.75 77.3125 C-53.2471482 71.65227303 -60.01879361 63.28444223 -63.50390625 51.8359375 C-66.84718566 37.10680444 -64.73363918 23.06623806 -56.75 10.3125 C-56.09 10.3125 -55.43 10.3125 -54.75 10.3125 C-54.481875 9.714375 -54.21375 9.11625 -53.9375 8.5 C-52.75082594 6.31402146 -51.65400887 4.89917406 -49.75 3.3125 C-49.09 3.3125 -48.43 3.3125 -47.75 3.3125 C-47.75 2.6525 -47.75 1.9925 -47.75 1.3125 C-45.85667466 0.49417278 -43.96022267 -0.31692268 -42.0625 -1.125 C-40.47888672 -1.80369141 -40.47888672 -1.80369141 -38.86328125 -2.49609375 C-27.13085753 -6.98591713 -11.11861719 -5.95640207 0 0 Z " fill="#FEFEFE" transform="translate(647.75,313.6875)"/>
<path d="M0 0 C2.8125 2.3125 2.8125 2.3125 5 5 C5.70125 5.825 6.4025 6.65 7.125 7.5 C12.8842657 18.2506293 13.06283721 29.55587752 9.9921875 41.078125 C8.62928624 45.09170823 6.83883486 48.81450874 4 52 C3.34 52 2.68 52 2 52 C2 52.66 2 53.32 2 54 C0.3970947 54.81498562 -1.20737278 55.62689927 -2.8125 56.4375 C-3.70582031 56.88996094 -4.59914063 57.34242188 -5.51953125 57.80859375 C-12.66555413 61.24093545 -23.01483117 61.41159997 -30.5625 58.8125 C-36.8144086 55.5160391 -41.36267398 51.65778303 -44 45 C-47.63510176 32.64377426 -48.43229018 20.77970168 -42.125 9.0625 C-37.6693393 2.64110663 -33.00876989 -1.42899012 -25.375 -3.25 C-16.86148788 -4.75536098 -7.82545888 -3.80997089 0 0 Z M-26 8 C-26 8.66 -26 9.32 -26 10 C-26.598125 10.226875 -27.19625 10.45375 -27.8125 10.6875 C-30.64276332 12.38565799 -31.56000848 14.05144593 -33 17 C-35.3447349 26.45923875 -34.79732552 36.43334728 -30 45 C-29.34 45 -28.68 45 -28 45 C-28 45.66 -28 46.32 -28 47 C-23.36676654 49.77994008 -19.34178379 50.98886016 -14 50 C-9.61128354 48.56842527 -6.2103129 46.74570601 -3.54296875 42.8984375 C0.19904667 34.77971853 0.28191508 25.44249653 -2.25 16.9375 C-3.96824341 12.55357055 -6.07970286 10.09731265 -10.1875 7.75 C-15.4517286 6.34620571 -20.76856354 6.51716654 -26 8 Z " fill="#FEFEFE" transform="translate(508,334)"/>
<path d="M0 0 C0.495 1.485 0.495 1.485 1 3 C1.66 3 2.32 3 3 3 C7.79366517 10.66986427 10.51676141 18.81788524 9 28 C7.71659851 29.61616516 7.71659851 29.61616516 6 31 C3.05815259 31.26167679 0.3326279 31.34873921 -2.60546875 31.29296875 C-3.44467361 31.28872391 -4.28387848 31.28447906 -5.14851379 31.28010559 C-7.82850245 31.26331464 -10.5077387 31.2256623 -13.1875 31.1875 C-15.00454643 31.17245367 -16.82160465 31.15876518 -18.63867188 31.14648438 C-23.09273776 31.11340982 -27.54624132 31.06162513 -32 31 C-31.71089021 32.43100847 -31.41374479 33.86039481 -31.11328125 35.2890625 C-30.94868408 36.08521973 -30.78408691 36.88137695 -30.61450195 37.70166016 C-29.46622373 41.99641232 -27.34659054 44.98643723 -23.8203125 47.640625 C-18.02574592 50.43357399 -9.59009939 49.99393069 -3.41796875 48.28515625 C-1.6075631 47.53399368 0.19670282 46.76807102 2 46 C5 46.3125 5 46.3125 7 47 C7.36914736 53.52160342 7.36914736 53.52160342 5.74609375 55.625 C-1.76518843 61.53992467 -13.93739891 61.05467988 -23 60 C-27.903121 58.72948325 -31.8046044 56.7969304 -36 54 C-36 53.34 -36 52.68 -36 52 C-36.66 52 -37.32 52 -38 52 C-38.81752303 50.41925436 -39.62881997 48.83528777 -40.4375 47.25 C-40.88996094 46.36828125 -41.34242188 45.4865625 -41.80859375 44.578125 C-46.08652165 35.32096955 -45.32028612 21.37798663 -41.859375 11.92578125 C-40.75191984 9.44407492 -39.65790628 7.16248645 -38 5 C-37.34 5 -36.68 5 -36 5 C-36 4.34 -36 3.68 -36 3 C-26.08907063 -5.42564023 -11.37754766 -6.06456982 0 0 Z M-26 9 C-28.51358067 11.72304573 -30.75214717 14.48332385 -32 18 C-31.67 19.32 -31.34 20.64 -31 22 C-22.09 22 -13.18 22 -4 22 C-2.88092412 16.40462061 -3.37529879 14.88737466 -6 10 C-11.64740295 4.82829622 -19.83356696 4.59540497 -26 9 Z " fill="#FEFEFE" transform="translate(869,334)"/>
<path d="M0 0 C4.51206123 4.11079096 8.66647827 8.65675853 9.15283203 14.99023438 C9.19648076 17.26799588 9.17463726 19.53491335 9.125 21.8125 C9.11597656 22.60076172 9.10695313 23.38902344 9.09765625 24.20117188 C9.07422504 26.13424666 9.03835838 28.0671638 9 30 C5.72108075 31.63945963 2.09386466 31.12030178 -1.5078125 31.09765625 C-2.76874222 31.09553383 -2.76874222 31.09553383 -4.05514526 31.09336853 C-6.74513275 31.08776237 -9.43503759 31.07520886 -12.125 31.0625 C-13.94661338 31.05748579 -15.76822807 31.05292275 -17.58984375 31.04882812 C-22.05992777 31.03779094 -26.52994986 31.0205222 -31 31 C-30.85997291 32.43664406 -30.71435961 33.87274434 -30.56640625 35.30859375 C-30.44567749 36.50826782 -30.44567749 36.50826782 -30.32250977 37.73217773 C-29.94716142 40.37154998 -29.15944393 42.60381587 -28 45 C-27.34 45 -26.68 45 -26 45 C-26 45.66 -26 46.32 -26 47 C-19.37338817 50.18026686 -10.50667314 50.17950749 -3.41796875 48.32421875 C-1.59554238 47.58897599 0.20422201 46.79812355 2 46 C5 45.8125 5 45.8125 7 46 C7 48.97 7 51.94 7 55 C5.58521865 55.64995297 4.16808513 56.29478722 2.75 56.9375 C1.96109375 57.29714844 1.1721875 57.65679687 0.359375 58.02734375 C-8.22803324 61.56751701 -20.2401241 61.49719013 -28.9375 58.25 C-31.5930731 57.1021365 -32.7046129 56.59307293 -34.00390625 53.984375 C-35.26589228 51.47030087 -36.5275172 51.20983624 -39 50 C-43.88948117 43.35651447 -43.90950384 34.91841415 -44 27 C-44.01289062 26.10925781 -44.02578125 25.21851563 -44.0390625 24.30078125 C-43.74192349 17.20373035 -40.95562491 10.85469541 -37 5 C-35.68893627 4.29053955 -34.35797031 3.61492995 -33 3 C-32.67 2.01 -32.34 1.02 -32 0 C-30.07421875 -0.9140625 -30.07421875 -0.9140625 -27.6875 -1.625 C-26.90761719 -1.86476563 -26.12773438 -2.10453125 -25.32421875 -2.3515625 C-24.55722656 -2.56554687 -23.79023437 -2.77953125 -23 -3 C-22.35160156 -3.19851563 -21.70320312 -3.39703125 -21.03515625 -3.6015625 C-14.4202708 -4.89660725 -5.76534056 -3.56380756 0 0 Z M-30 13.5 C-31.0887864 16.22196599 -31.32267279 18.09594485 -31 21 C-29.25926796 22.74073204 -26.86908365 22.13022093 -24.50390625 22.1328125 C-22.83038086 22.13474609 -22.83038086 22.13474609 -21.12304688 22.13671875 C-19.94806641 22.13285156 -18.77308594 22.12898438 -17.5625 22.125 C-16.39138672 22.12886719 -15.22027344 22.13273437 -14.01367188 22.13671875 C-12.89669922 22.13542969 -11.77972656 22.13414062 -10.62890625 22.1328125 C-9.0831189 22.13112061 -9.0831189 22.13112061 -7.50610352 22.12939453 C-5.00190325 22.16782632 -5.00190325 22.16782632 -3 21 C-3.18643747 14.91380141 -3.18643747 14.91380141 -5.75 9.5625 C-14.54169366 3.45715718 -23.44647374 5.30809217 -30 13.5 Z " fill="#FEFEFE" transform="translate(708,334)"/>
<path d="M0 0 C0 0.66 0 1.32 0 2 C0.5775 2.226875 1.155 2.45375 1.75 2.6875 C5.9203335 5.12019454 7.68052671 7.97297505 9.1027832 12.54516602 C10.24357503 17.41971038 10.27044513 22.16667044 10.23046875 27.15234375 C10.23001053 28.09308243 10.22955231 29.03382111 10.2290802 30.00306702 C10.22607713 31.97544632 10.21824976 33.94782366 10.20581055 35.92016602 C10.18740763 38.95272105 10.18530213 41.98497275 10.18554688 45.01757812 C10.18063648 46.93750266 10.17481026 48.85742512 10.16796875 50.77734375 C10.16685593 51.68765854 10.1657431 52.59797333 10.16459656 53.53587341 C10.11609387 59.88390613 10.11609387 59.88390613 9 61 C7.14712498 61.07226502 5.29166122 61.0838122 3.4375 61.0625 C2.42558594 61.05347656 1.41367187 61.04445313 0.37109375 61.03515625 C-0.80259766 61.01775391 -0.80259766 61.01775391 -2 61 C-2.029729 59.13867432 -2.029729 59.13867432 -2.06005859 57.23974609 C-2.13632081 52.62138099 -2.2250063 48.00332248 -2.31738281 43.38525391 C-2.35558748 41.38922188 -2.39045502 39.39312301 -2.421875 37.39697266 C-2.46771064 34.52221846 -2.52567441 31.64792108 -2.5859375 28.7734375 C-2.59748871 27.88570648 -2.60903992 26.99797546 -2.62094116 26.08334351 C-2.73204172 21.38417857 -3.04353001 17.3640319 -5 13 C-5.66 12.67 -6.32 12.34 -7 12 C-7 11.34 -7 10.68 -7 10 C-12.4389165 9.78244334 -16.87080814 9.89571616 -22 12 C-22 12.66 -22 13.32 -22 14 C-22.81186768 14.67716064 -23.62373535 15.35432129 -24.46020508 16.05200195 C-27.94573262 20.09773348 -27.69935425 22.99554972 -27.63671875 28.16796875 C-27.64709671 29.04399246 -27.65747467 29.92001617 -27.66816711 30.82258606 C-27.69780494 33.61129284 -27.6944763 36.39866436 -27.6875 39.1875 C-27.69638321 41.98667259 -27.71227925 44.78548898 -27.7389679 47.58454895 C-27.75392433 49.32397977 -27.75766193 51.0635498 -27.74919128 52.80302429 C-27.77760607 58.77760607 -27.77760607 58.77760607 -30 61 C-32.12890625 61.23046875 -32.12890625 61.23046875 -34.5625 61.1875 C-35.36816406 61.18105469 -36.17382812 61.17460937 -37.00390625 61.16796875 C-39 61 -39 61 -40 60 C-40.09905152 58.16427369 -40.12799207 56.32472425 -40.12939453 54.48632812 C-40.13254669 53.30840698 -40.13569885 52.13048584 -40.13894653 50.91687012 C-40.1369223 49.63461548 -40.13489807 48.35236084 -40.1328125 47.03125 C-40.13376923 45.72546997 -40.13472595 44.41968994 -40.13571167 43.07434082 C-40.13718833 40.30687278 -40.13503511 37.53943696 -40.13037109 34.77197266 C-40.12467381 31.21737351 -40.12795298 27.66284986 -40.13394356 24.10825348 C-40.13841747 20.72841286 -40.13528886 17.34859277 -40.1328125 13.96875 C-40.13483673 12.68649536 -40.13686096 11.40424072 -40.13894653 10.08312988 C-40.13579437 8.90520874 -40.13264221 7.7272876 -40.12939453 6.51367188 C-40.12859894 5.47078003 -40.12780334 4.42788818 -40.12698364 3.35339355 C-40 1 -40 1 -39 0 C-37.48071962 -0.07179964 -35.95832518 -0.08392007 -34.4375 -0.0625 C-33.61121094 -0.05347656 -32.78492188 -0.04445313 -31.93359375 -0.03515625 C-31.29550781 -0.02355469 -30.65742187 -0.01195312 -30 0 C-29.67 1.98 -29.34 3.96 -29 6 C-28.29037109 5.38511719 -28.29037109 5.38511719 -27.56640625 4.7578125 C-18.45406861 -2.6670552 -11.2282447 -2.46983386 0 0 Z " fill="#FEFEFE" transform="translate(772,332)"/>
<path d="M0 0 C2 2 2 2 2.1953125 3.9453125 C2.13020833 5.96354167 2.06510417 7.98177083 2 10 C-0.96754684 10.88024924 -2.49085544 11.21179749 -5.39453125 10.00390625 C-6.19246094 9.52824219 -6.99039063 9.05257813 -7.8125 8.5625 C-12.67375079 5.97657461 -15.5295837 5.17943755 -21 6 C-25.46777898 8.27603835 -27.96877384 10.43267643 -30 15 C-30.41510788 18.65242243 -30.37284936 22.265845 -30.3125 25.9375 C-30.31572266 26.91396484 -30.31894531 27.89042969 -30.32226562 28.89648438 C-30.2843471 33.98101428 -30.01952965 38.24485249 -28 43 C-27.34 43 -26.68 43 -26 43 C-26 43.66 -26 44.32 -26 45 C-20.86355483 46.81915766 -16.33274233 47.75134342 -11 46 C-8.57035102 44.51655095 -6.3218254 42.93106515 -4.078125 41.1796875 C-2 40 -2 40 0.265625 40.3203125 C0.83796875 40.54460937 1.4103125 40.76890625 2 41 C2.4598904 45.6908821 2.7621616 48.9043927 0 52.875 C-7.91376593 58.4805842 -15.49419961 58.86015363 -25 58 C-27.92931825 57.25699508 -30.26259087 56.31395638 -33 55 C-33 54.34 -33 53.68 -33 53 C-33.60585938 52.74089844 -34.21171875 52.48179687 -34.8359375 52.21484375 C-39.2836102 49.71804554 -41.39159677 45.12161127 -42.76171875 40.34375 C-45.02958093 28.8918502 -44.70321556 16.82925262 -40 6 C-39.34 6 -38.68 6 -38 6 C-38 5.01 -38 4.02 -38 3 C-37.34 3 -36.68 3 -36 3 C-36 2.34 -36 1.68 -36 1 C-26.10769592 -7.60200355 -10.30736891 -8.91448122 0 0 Z " fill="#FEFEFE" transform="translate(573,336)"/>
<path d="M0 0 C0.9075 0.00257813 1.815 0.00515625 2.75 0.0078125 C4.11125 0.00394531 4.11125 0.00394531 5.5 0 C7.75 0.1328125 7.75 0.1328125 8.75 1.1328125 C8.84899286 2.93261021 8.87799148 4.73630084 8.87939453 6.53881836 C8.88254669 7.69349106 8.88569885 8.84816376 8.88894653 10.03782654 C8.8869223 11.29507034 8.88489807 12.55231415 8.8828125 13.84765625 C8.88376923 15.12886856 8.88472595 16.41008087 8.88571167 17.7301178 C8.88718848 20.44631145 8.88503498 23.16247227 8.88037109 25.87866211 C8.87467947 29.36366108 8.87794929 32.84858294 8.88394356 36.33357906 C8.88842309 39.65077767 8.88528772 42.96795546 8.8828125 46.28515625 C8.88483673 47.54037582 8.88686096 48.7955954 8.88894653 50.08885193 C8.88579437 51.24667679 8.88264221 52.40450165 8.87939453 53.59741211 C8.87820114 55.13177162 8.87820114 55.13177162 8.87698364 56.6971283 C8.75 59.1328125 8.75 59.1328125 7.75 61.1328125 C6.10425434 61.15969401 4.45838587 61.17915373 2.8125 61.1953125 C1.89597656 61.20691406 0.97945312 61.21851563 0.03515625 61.23046875 C-2.25 61.1328125 -2.25 61.1328125 -3.25 60.1328125 C-3.34905152 58.29708619 -3.37799207 56.45753675 -3.37939453 54.61914062 C-3.38254669 53.44121948 -3.38569885 52.26329834 -3.38894653 51.04968262 C-3.3869223 49.76742798 -3.38489807 48.48517334 -3.3828125 47.1640625 C-3.38376923 45.85828247 -3.38472595 44.55250244 -3.38571167 43.20715332 C-3.38718833 40.43968528 -3.38503511 37.67224946 -3.38037109 34.90478516 C-3.37467381 31.35018601 -3.37795298 27.79566236 -3.38394356 24.24106598 C-3.38841747 20.86122536 -3.38528886 17.48140527 -3.3828125 14.1015625 C-3.38483673 12.81930786 -3.38686096 11.53705322 -3.38894653 10.21594238 C-3.38579437 9.03802124 -3.38264221 7.8601001 -3.37939453 6.64648438 C-3.37859894 5.60359253 -3.37780334 4.56070068 -3.37698364 3.48620605 C-3.20923025 0.37722485 -3.10267941 0.18314427 0 0 Z " fill="#FEFEFE" transform="translate(802.25,331.8671875)"/>
<path d="M0 0 C2.375 1 2.375 1 4 3 C4.65964122 6.55761554 4.63041883 9.73916234 3 13 C-0.26205554 14.63102777 -3.43555389 14.51981506 -7 14 C-9 13 -9 13 -10 11 C-10.45429103 8.23975072 -10.51084843 5.7551376 -10 3 C-7.19663749 -0.45029232 -4.26211439 -0.5327643 0 0 Z " fill="#FFFFFF" transform="translate(808,308)"/>
</svg>
